<?xml version="1.0" standalone="no"?>
<!DOCTYPE svg PUBLIC "-//W3C//DTD SVG 20010904//EN"
 "http://www.w3.org/TR/2001/REC-SVG-20010904/DTD/svg10.dtd">
<svg version="1.0" xmlns="http://www.w3.org/2000/svg"
 width="250.000000pt" height="250.000000pt" viewBox="0 0 250.000000 250.000000"
 preserveAspectRatio="xMidYMid meet">
<metadata>
Created by potrace 1.11, written by Peter Selinger 2001-2013
</metadata>
<g transform="translate(0.000000,250.000000) scale(0.100000,-0.100000)"
fill="#000000" stroke="none">
<path d="M139 2473 c-60 -31 -112 -92 -129 -151 -14 -51 -14 -2093 0 -2144 16
-57 69 -119 129 -150 l53 -28 1058 0 1058 0 53 28 c60 31 113 93 129 150 14
51 14 2093 0 2144 -17 59 -69 120 -129 151 l-55 27 -1056 0 -1056 0 -55 -27z
m1399 -610 c14 -22 11 -26 -61 -101 l-76 -77 21 -117 22 -117 48 -11 c27 -5
80 -15 118 -21 l70 -12 74 72 c41 39 81 71 90 71 30 0 46 -40 35 -95 -36 -194
-236 -335 -420 -296 l-53 12 -270 -270 c-291 -289 -309 -302 -390 -287 -66 12
-147 117 -131 169 2 7 6 26 10 42 5 22 81 104 277 301 l270 272 -12 37 c-7 21
-10 65 -8 103 12 168 114 292 278 338 60 17 90 14 108 -13z"/>
<path d="M757 852 c-22 -25 -21 -75 1 -95 29 -26 77 -22 101 9 12 15 21 32 21
39 0 7 -9 24 -21 39 -25 32 -77 36 -102 8z"/>
</g>
</svg>
